<?xml version="1.0" encoding="utf-8"?>
<!-- Generator: Adobe Illustrator 27.2.0, SVG Export Plug-In . SVG Version: 6.00 Build 0)  -->
<svg version="1.1" id="Capa_1" xmlns="http://www.w3.org/2000/svg" xmlns:xlink="http://www.w3.org/1999/xlink" x="0px" y="0px"
	 viewBox="0 0 98.9 84.4" style="enable-background:new 0 0 98.9 84.4;" xml:space="preserve">
<style type="text/css">
	.st0{fill:none;}
	.st1{fill:#00257F;}
	.st2{font-family:'Exo-Medium';}
	.st3{font-size:4.4404px;}
	.st4{fill:none;stroke:#FFFFFF;stroke-linecap:round;stroke-miterlimit:10;}
	.st5{fill:#FFFFFF;stroke:#000000;stroke-miterlimit:10;}
	.st6{fill:none;stroke:#00257F;stroke-width:2;stroke-linecap:round;stroke-linejoin:round;stroke-miterlimit:10;}
</style>
<g>
	<path id="SVGID_x5F_1_x5F_" class="st0" d="M95.7,47.5C95.7,21.3,74.4,0,48.2,0C22,0,0.7,21.3,0.7,47.5c0,26.2,21.3,47.5,47.5,47.5
		C74.4,94.9,95.7,73.7,95.7,47.5z"/>
	<text>	<textPath  xlink:href="#SVGID_x5F_1_x5F_" startOffset="33.3253%">
	</textPath>
</text>
	<g>
		<path id="SVGID_x5F_00000065046682501366741970000004618669674920191909_x5F_" class="st0" d="M8.2,47.5c0-22.1,17.9-40,40-40
			c22.1,0,40,17.9,40,40c0,22.1-17.9,40-40,40C26.1,87.4,8.2,69.5,8.2,47.5z"/>
		<text>		<textPath  xlink:href="#SVGID_x5F_00000065046682501366741970000004618669674920191909_x5F_" startOffset="100%">
<tspan  style="fill:#FFFFFF; font-family:'Exo-ExtraLight'; font-size:8px; letter-spacing:350;">COSMOS EXPLORE</tspan>		</textPath>
</text>
	</g>
	<text transform="matrix(1 0 0 1 8.203472e-02 52.8063)" class="st1 st2 st3">estd</text>
	<text transform="matrix(1 0 0 1 85.5093 52.8063)" class="st1 st2 st3">2023</text>
	<path class="st4" d="M19.8,28.3C16.1,33.8,14,40.4,14,47.5c0,7.1,2.2,13.7,5.8,19.1"/>
	<path class="st4" d="M29,75.7c5.5,3.7,12.1,5.8,19.1,5.8s13.7-2.2,19.1-5.8"/>
	<path class="st4" d="M76.3,66.5c3.7-5.5,5.8-12.1,5.8-19.1c0-7.1-2.2-13.7-5.8-19.1"/>
	<path class="st4" d="M67.2,19.1c-5.5-3.7-12.1-5.8-19.1-5.8s-13.7,2.2-19.1,5.8"/>
	<ellipse transform="matrix(0.2298 -0.9732 0.9732 0.2298 -9.069 83.4735)" class="st5" cx="48.2" cy="47.5" rx="25" ry="25"/>
	<g>
		<path class="st6" d="M68.1,32.2c-3.8,5.3-9.8,12.2-16.9,19.4c-6.5,6.5-12.9,12.1-18,15.9"/>
		<path class="st6" d="M33.2,67.5c-5.5,4.1-9.5,6.2-10.6,5.1c-0.8-0.8,0.1-3.1,2.1-6.3"/>
		<path class="st6" d="M65.8,25.2c3.3-2.1,5.6-2.9,6.3-2.1c1,1-0.6,4.4-4,9.2"/>
	</g>
	<g>
		<path class="st6" d="M28.3,32.2c3.8,5.3,9.8,12.2,16.9,19.4c6.5,6.5,12.9,12.1,18,15.9"/>
		<path class="st6" d="M63.2,67.5c5.5,4.1,9.5,6.2,10.6,5.1c0.8-0.8-0.1-3.1-2.1-6.3"/>
		<path class="st6" d="M30.6,25.2c-3.3-2.1-5.6-2.9-6.3-2.1c-1,1,0.6,4.4,4,9.2"/>
	</g>
</g>
</svg>
